<svg width="65" height="55" viewBox="0 0 65 55" fill="none" xmlns="http://www.w3.org/2000/svg">
<g clip-path="url(#clip0_14393_10246)">
<path d="M11.58 7.34719C11.7726 7.10649 11.9022 6.87319 11.9688 6.64728C12.0355 6.42139 12.0688 6.15846 12.0688 5.86591L12.0614 3.6736C12.0577 1.64423 10.4098 0 8.38041 0H0V17.4533H8.38041C10.4098 17.4533 12.0577 15.809 12.0614 13.7797L12.0688 9.51353L10.4468 8.51371C10.7541 8.23226 10.9727 8.02859 11.0985 7.90268C11.2245 7.77677 11.3875 7.5916 11.58 7.3509M8.87295 13.5575C8.87295 13.9538 8.55076 14.2722 8.15822 14.2722H3.18107V10.3172H8.87665V13.5575H8.87295ZM8.87295 7.13611H3.17738V3.18107H8.15452C8.55076 3.18107 8.86924 3.50324 8.86924 3.89579V7.13611H8.87295Z" fill="#007297"/>
<path d="M16.1762 0H18.4353V16.5312C18.4353 17.0385 18.0241 17.4496 17.5168 17.4496H15.2578V0.918399C15.2578 0.411057 15.6689 0 16.1762 0Z" fill="#007297"/>
<path d="M33.1972 7.34719C33.3898 7.10649 33.5194 6.87319 33.586 6.64728C33.6527 6.42139 33.686 6.15846 33.686 5.86591L33.6786 3.6736C33.6748 1.64423 32.0269 0 29.9975 0H21.6172V17.4533H29.9975C32.0269 17.4533 33.6748 15.809 33.6786 13.7797L33.686 9.51353L32.064 8.51371C32.3713 8.23226 32.5898 8.02859 32.7157 7.90268C32.8417 7.77677 33.0046 7.5916 33.1972 7.3509M30.4901 13.5575C30.4901 13.9538 30.1679 14.2722 29.7753 14.2722H24.7982V10.3172H30.4938V13.5575H30.4901ZM30.4901 7.13611H24.7945V3.18107H29.7717C30.1679 3.18107 30.4864 3.50324 30.4864 3.89579V7.13611H30.4901Z" fill="#007297"/>
<path d="M60.455 0H52.082V16.5312C52.082 17.0385 52.4931 17.4496 53.0041 17.4496H55.263V3.17737H60.2403C60.6365 3.17737 60.9549 3.49955 60.9549 3.89208V17.4496H63.2139C63.7212 17.4496 64.136 17.0385 64.136 16.5312V3.681C64.136 1.64794 62.4881 0 60.455 0Z" fill="#007297"/>
<path d="M45.2246 0H36.8516V16.5312C36.8516 17.0385 37.2626 17.4496 37.77 17.4496H40.0289V10.3135H45.7245V17.4496H47.9835C48.4908 17.4496 48.9019 17.0385 48.9019 16.5312V3.681C48.9019 1.64794 47.2539 0 45.2208 0M40.0327 7.13611V3.18107H45.0098C45.406 3.18107 45.7245 3.50324 45.7245 3.89579V7.13611H40.0289H40.0327Z" fill="#007297"/>
<path d="M56.1346 30.0663L58.5935 31.9178C58.8824 32.1364 59.0527 32.4733 59.0527 32.8325V46.8899C59.0527 47.164 58.7379 47.3158 58.5232 47.1492L51.2945 41.5462L51.2871 31.5364C51.2871 30.7217 50.6241 30.0625 49.8095 30.0625H43.2733L45.7322 31.9142C46.0211 32.1326 46.1877 32.4696 46.1877 32.8288V46.8974C46.1877 47.1677 45.8766 47.3233 45.6619 47.1603L38.2665 41.5499V31.5401C38.2628 30.7254 37.5999 30.0663 36.7852 30.0663H30.2453L32.7042 31.9178C32.9931 32.1364 33.1635 32.4733 33.1635 32.8325V46.8899C33.1635 47.164 32.8487 47.3158 32.6339 47.1492L25.4385 41.5499L25.4903 20.623H21.876C21.0613 20.623 20.3984 21.2822 20.3984 22.0969V44.8606C20.3984 46.49 21.7205 47.8121 23.3498 47.8121H58.238C61.4969 47.8121 64.1409 45.1717 64.1409 41.9091V31.5401C64.1409 30.7254 63.4818 30.0663 62.6634 30.0663H56.1308H56.1346Z" fill="#2D2A26"/>
<path d="M8.84998 28.0039C7.4983 28.0039 6.39844 26.9077 6.39844 25.5523V25.3597C6.39844 24.008 7.4946 22.9082 8.84998 22.9082C10.2054 22.9082 11.3015 24.0044 11.3015 25.3597V25.5523C11.3015 26.904 10.2054 28.0039 8.84998 28.0039Z" fill="#2D2A26"/>
<path d="M32.889 54.9296C31.5374 54.9296 30.4375 53.8335 30.4375 52.4781V52.2855C30.4375 50.9339 31.5337 49.834 32.889 49.834C34.2444 49.834 35.3406 50.9301 35.3406 52.2855V52.4781C35.3406 53.8298 34.2444 54.9296 32.889 54.9296Z" fill="#2D2A26"/>
<path d="M12.765 32.8435V46.8862C12.765 47.1602 12.4503 47.3121 12.2355 47.1454L5.09565 41.5498V30.0624H1.47388C0.659174 30.0624 0 30.7253 0 31.54V41.9091C0 45.1679 2.64411 47.8119 5.90295 47.8119H14.9092C16.5386 47.8119 17.8607 46.4899 17.8607 44.8605V31.5326C17.8607 30.7178 17.2052 30.0587 16.3906 30.055L9.70246 30.0254L12.2947 31.914C12.591 32.1288 12.765 32.4732 12.765 32.8398" fill="#2D2A26"/>
<path d="M62.6777 52.4521C62.6777 53.8593 61.5371 54.9999 60.1298 54.9999C58.7226 54.9999 57.582 53.8593 57.582 52.4521C57.582 51.0448 58.7226 49.9043 60.1298 49.9043C61.5371 49.9043 62.6777 51.0448 62.6777 52.4521Z" fill="#2D2A26"/>
<path d="M49.8261 52.4521C49.8261 53.8593 48.6855 54.9999 47.2783 54.9999C45.8711 54.9999 44.7305 53.8593 44.7305 52.4521C44.7305 51.0448 45.8711 49.9043 47.2783 49.9043C48.6855 49.9043 49.8261 51.0448 49.8261 52.4521Z" fill="#2D2A26"/>
<path d="M44.0371 52.4521C44.0371 53.8593 42.8965 54.9999 41.4892 54.9999C40.082 54.9999 38.9414 53.8593 38.9414 52.4521C38.9414 51.0448 40.082 49.9043 41.4892 49.9043C42.8965 49.9043 44.0371 51.0448 44.0371 52.4521Z" fill="#2D2A26"/>
</g>
<defs>
<clipPath id="clip0_14393_10246">
<rect width="64.1667" height="55" fill="white"/>
</clipPath>
</defs>
</svg>
