<svg width="40" height="41" viewBox="0 0 40 41" fill="none" xmlns="http://www.w3.org/2000/svg">
<g filter="url(#filter0_d_9009_10182)">
<path d="M2.5 15.2445C2.5 10.8885 2.5 8.71055 3.34773 7.04679C4.09341 5.58331 5.28326 4.39346 6.74674 3.64778C8.4105 2.80005 10.5885 2.80005 14.9444 2.80005H25.0556C29.4115 2.80005 31.5895 2.80005 33.2533 3.64778C34.7167 4.39346 35.9066 5.58331 36.6523 7.04679C37.5 8.71055 37.5 10.8885 37.5 15.2445V25.3556C37.5 29.7116 37.5 31.8896 36.6523 33.5533C35.9066 35.0168 34.7167 36.2066 33.2533 36.9523C31.5895 37.8 29.4115 37.8 25.0556 37.8H14.9444C10.5885 37.8 8.4105 37.8 6.74674 36.9523C5.28326 36.2066 4.09341 35.0168 3.34773 33.5533C2.5 31.8896 2.5 29.7116 2.5 25.3556V15.2445Z" fill="white"/>
<path d="M27.5647 10.9537L20.0808 16.7943L12.4258 10.9537V10.9553L12.435 10.9632V19.1415L19.9944 25.1083L27.5647 19.372V10.9537Z" fill="#EA4335"/>
<path d="M29.5298 9.53303L27.5645 10.9537V19.3719L33.7489 14.6238V11.7635C33.7489 11.7635 32.9982 7.67827 29.5298 9.53303Z" fill="#FBBC05"/>
<path d="M27.5645 19.3721V30.2907H32.3045C32.3045 30.2907 33.6533 30.1518 33.7504 28.6143V14.6239L27.5645 19.3721Z" fill="#34A853"/>
<path d="M12.4354 30.3V19.1414L12.4258 19.1335L12.4354 30.3Z" fill="#C5221F"/>
<path d="M12.4252 10.9553L10.4706 9.54257C7.00224 7.68781 6.25 11.7714 6.25 11.7714V14.6317L12.4252 19.1337V10.9553Z" fill="#C5221F"/>
<path d="M12.4258 10.9553V19.1336L12.4354 19.1415V10.9632L12.4258 10.9553Z" fill="#C5221F"/>
<path d="M6.25 14.6333V28.6237C6.34557 30.1628 7.69591 30.3001 7.69591 30.3001H12.436L12.4252 19.1337L6.25 14.6333Z" fill="#4285F4"/>
</g>
<defs>
<filter id="filter0_d_9009_10182" x="-2" y="-0.699951" width="44" height="44" filterUnits="userSpaceOnUse" color-interpolation-filters="sRGB">
<feFlood flood-opacity="0" result="BackgroundImageFix"/>
<feColorMatrix in="SourceAlpha" type="matrix" values="0 0 0 0 0 0 0 0 0 0 0 0 0 0 0 0 0 0 127 0" result="hardAlpha"/>
<feOffset dy="1"/>
<feGaussianBlur stdDeviation="1"/>
<feComposite in2="hardAlpha" operator="out"/>
<feColorMatrix type="matrix" values="0 0 0 0 0.0627451 0 0 0 0 0.0941176 0 0 0 0 0.156863 0 0 0 0.05 0"/>
<feBlend mode="normal" in2="BackgroundImageFix" result="effect1_dropShadow_9009_10182"/>
<feBlend mode="normal" in="SourceGraphic" in2="effect1_dropShadow_9009_10182" result="shape"/>
</filter>
</defs>
</svg>
