<svg width="40" height="41" viewBox="0 0 40 41" fill="none" xmlns="http://www.w3.org/2000/svg">
<rect x="2.5" y="2.80005" width="35" height="35" rx="17.5" fill="#1275B1"/>
<path d="M15.7732 12.4152C15.7732 13.5834 14.7606 14.5304 13.5116 14.5304C12.2626 14.5304 11.25 13.5834 11.25 12.4152C11.25 11.247 12.2626 10.3 13.5116 10.3C14.7606 10.3 15.7732 11.247 15.7732 12.4152Z" fill="white"/>
<path d="M11.5593 16.0852H15.4253V27.8H11.5593V16.0852Z" fill="white"/>
<path d="M21.6495 16.0852H17.7835V27.8H21.6495C21.6495 27.8 21.6495 24.112 21.6495 21.8061C21.6495 20.4221 22.1221 19.032 24.0077 19.032C26.1388 19.032 26.1259 20.8432 26.116 22.2464C26.103 24.0806 26.134 25.9524 26.134 27.8H30V21.6172C29.9673 17.6693 28.9385 15.8502 25.5541 15.8502C23.5442 15.8502 22.2984 16.7626 21.6495 17.5882V16.0852Z" fill="white"/>
</svg>
